# Blender 4.0.1
# www.blender.org
mtllib body.mtl
o Body
v -0.700000 -0.300000 1.100000
v -0.700000 0.300000 1.100000
v -0.700000 -0.300000 -1.100000
v -0.700000 0.300000 -1.100000
v 0.700000 -0.300000 1.100000
v 0.700000 0.300000 1.100000
v 0.700000 -0.300000 -1.100000
v 0.700000 0.300000 -1.100000
v 0.700000 0.300000 1.100000
v -0.700000 -0.300000 1.339108
v -0.700000 0.300000 1.339108
v -0.700000 -0.300000 -1.100000
v -0.700000 0.300000 -1.100000
v -0.700000 -0.300000 -1.339108
v -0.700000 0.300000 -1.339108
v -1.200000 -0.300000 -1.339108
v -0.700000 0.366839 -1.339108
v -1.200000 0.366839 -1.339108
v -0.700000 -0.300000 1.339108
v -1.200000 -0.300000 1.339108
v -0.700000 0.366839 1.339108
v -1.200000 0.366839 1.339108
v -0.800000 0.400000 -1.198534
v -1.100000 0.400000 -1.198534
v -0.800000 0.400000 1.198534
v -1.100000 0.400000 1.198534
v 0.700000 0.300000 1.339108
v 0.700000 -0.300000 -1.339108
v 0.700000 0.300000 -1.339108
v 1.200000 -0.300000 -1.339108
v 0.700000 0.366839 -1.339108
v 1.200000 0.366839 -1.339108
v 0.700000 -0.300000 1.339108
v 1.200000 -0.300000 1.339108
v 0.700000 0.366839 1.339108
v 1.200000 0.366839 1.339108
v 0.800000 0.400000 -1.198534
v 1.100000 0.400000 -1.198534
v 0.800000 0.400000 1.198534
v 1.100000 0.400000 1.198534
vn -0.0000 -0.0000 -1.0000
vn -0.0000 1.0000 -0.0000
vn 1.0000 -0.0000 -0.0000
vn -1.0000 -0.0000 -0.0000
vn -0.0000 -0.0000 1.0000
vn -0.0000 -1.0000 -0.0000
vn 0.3148 -0.9492 -0.0000
vn -0.0000 -0.9733 0.2296
vn -0.0000 -0.9733 -0.2296
vn -0.3148 -0.9492 -0.0000
vt 0.625000 1.000000
vt 0.000000 0.000000
vt 0.375000 1.000000
vt 0.125000 0.750000
s 0
f 13/1/1 7/2/1 12/3/1
f 12/2/2 16/2/2 20/2/2
f 2/1/3 10/3/3 1/3/3
f 21/2/4 15/2/4 11/2/4
f 20/4/3 18/2/3 22/2/3
f 14/2/5 18/2/5 16/2/5
f 14/3/3 13/1/3 12/3/3
f 19/4/5 22/2/5 20/4/5
f 24/2/6 25/2/6 26/2/6
f 26/2/7 18/2/7 24/2/7
f 24/2/8 17/2/8 23/2/8
f 22/2/9 25/2/9 21/2/9
f 21/2/10 23/2/10 17/2/10
f 29/2/3 35/2/3 27/2/3
f 32/2/4 34/4/4 36/2/4
f 32/2/5 28/2/5 30/2/5
f 36/2/5 33/4/5 34/4/5
f 39/2/6 38/2/6 40/2/6
f 32/2/10 40/2/10 38/2/10
f 31/2/8 38/2/8 37/2/8
f 39/2/9 36/2/9 35/2/9
f 37/2/7 35/2/7 31/2/7
f 29/2/4 7/2/4 8/2/4
f 5/2/4 27/2/4 9/2/4
f 5/2/5 2/1/5 1/3/5
f 30/2/2 7/2/2 5/2/2
f 13/1/2 9/2/2 8/2/2
f 5/2/6 12/2/6 7/2/6
f 13/1/1 8/2/1 7/2/1
f 20/2/2 19/2/2 1/2/2
f 12/2/2 14/2/2 16/2/2
f 20/2/2 1/2/2 12/2/2
f 2/1/3 11/1/3 10/3/3
f 21/2/4 17/2/4 15/2/4
f 20/4/3 16/2/3 18/2/3
f 14/2/5 17/2/5 18/2/5
f 14/3/3 15/1/3 13/1/3
f 19/4/5 21/2/5 22/2/5
f 24/2/6 23/2/6 25/2/6
f 26/2/7 22/2/7 18/2/7
f 24/2/8 18/2/8 17/2/8
f 22/2/9 26/2/9 25/2/9
f 21/2/10 25/2/10 23/2/10
f 29/2/3 31/2/3 35/2/3
f 32/2/4 30/2/4 34/4/4
f 32/2/5 31/2/5 28/2/5
f 36/2/5 35/2/5 33/4/5
f 39/2/6 37/2/6 38/2/6
f 32/2/10 36/2/10 40/2/10
f 31/2/8 32/2/8 38/2/8
f 39/2/9 40/2/9 36/2/9
f 37/2/7 39/2/7 35/2/7
f 29/2/4 28/2/4 7/2/4
f 5/2/4 33/2/4 27/2/4
f 5/2/5 9/2/5 2/1/5
f 33/4/2 34/4/2 30/2/2
f 30/2/2 28/2/2 7/2/2
f 5/2/2 33/4/2 30/2/2
f 13/1/2 2/1/2 9/2/2
f 5/2/6 1/3/6 12/2/6
l 3 1
l 2 4
l 4 3
l 8 6
l 6 5
l 4 8
l 7 3
l 10 19
l 11 13
