# Blender 4.0.1
# www.blender.org
mtllib cannon.mtl
o Cannon
v -0.000000 0.660000 -0.000001
v -0.000000 0.639903 -0.600001
v 0.021460 0.657886 -0.000001
v 0.017539 0.638176 -0.600001
v 0.042095 0.651627 -0.000001
v 0.034404 0.633060 -0.600001
v 0.061113 0.641462 -0.000001
v 0.049948 0.624752 -0.600001
v 0.077782 0.627782 -0.000001
v 0.063571 0.613571 -0.600001
v 0.091462 0.611113 -0.000001
v 0.074752 0.599948 -0.600001
v 0.101627 0.592095 -0.000001
v 0.083060 0.584404 -0.600001
v 0.107886 0.571460 -0.000001
v 0.088176 0.567539 -0.600001
v 0.110000 0.550000 -0.000001
v 0.089903 0.550000 -0.600001
v 0.107886 0.528540 -0.000001
v 0.088176 0.532461 -0.600001
v 0.101627 0.507905 -0.000001
v 0.083060 0.515595 -0.600001
v 0.091462 0.488887 -0.000001
v 0.074752 0.500052 -0.600001
v 0.077782 0.472218 -0.000001
v 0.063571 0.486429 -0.600001
v 0.061113 0.458538 -0.000001
v 0.049948 0.475248 -0.600001
v 0.042095 0.448373 -0.000001
v 0.034404 0.466940 -0.600001
v 0.021460 0.442114 -0.000001
v 0.017539 0.461824 -0.600001
v -0.000000 0.440000 -0.000001
v -0.000000 0.460097 -0.600001
v -0.021460 0.442114 -0.000001
v -0.017539 0.461824 -0.600001
v -0.042095 0.448373 -0.000001
v -0.034405 0.466940 -0.600001
v -0.061113 0.458538 -0.000001
v -0.049948 0.475248 -0.600001
v -0.077782 0.472218 -0.000001
v -0.063571 0.486429 -0.600001
v -0.091462 0.488887 -0.000001
v -0.074752 0.500052 -0.600001
v -0.101627 0.507905 -0.000001
v -0.083060 0.515595 -0.600001
v -0.107886 0.528540 -0.000001
v -0.088176 0.532461 -0.600001
v -0.110000 0.550000 -0.000001
v -0.089903 0.550000 -0.600001
v -0.107886 0.571460 -0.000001
v -0.088176 0.567539 -0.600001
v -0.101627 0.592095 -0.000001
v -0.083060 0.584404 -0.600001
v -0.091462 0.611113 -0.000001
v -0.074752 0.599948 -0.600001
v -0.077782 0.627782 -0.000001
v -0.063571 0.613571 -0.600001
v -0.061113 0.641462 -0.000001
v -0.049948 0.624752 -0.600001
v -0.042095 0.651627 -0.000001
v -0.034405 0.633060 -0.600001
v -0.021460 0.657886 -0.000001
v -0.017539 0.638176 -0.600001
v 0.021460 0.657886 -1.900000
v -0.000000 0.660000 -1.900000
v 0.042095 0.651627 -1.900000
v 0.061113 0.641462 -1.900000
v 0.077782 0.627782 -1.900000
v 0.091462 0.611113 -1.900000
v 0.101627 0.592095 -1.900000
v 0.107886 0.571460 -1.900000
v 0.110000 0.550000 -1.900000
v 0.107886 0.528540 -1.900000
v 0.101627 0.507905 -1.900000
v 0.091462 0.488887 -1.900000
v 0.077782 0.472218 -1.900000
v 0.061113 0.458538 -1.900000
v 0.042095 0.448373 -1.900000
v 0.021460 0.442114 -1.900000
v -0.000000 0.440000 -1.900000
v -0.021460 0.442114 -1.900000
v -0.042095 0.448373 -1.900000
v -0.061113 0.458538 -1.900000
v -0.077782 0.472218 -1.900000
v -0.091462 0.488887 -1.900000
v -0.101627 0.507905 -1.900000
v -0.107886 0.528540 -1.900000
v -0.110000 0.550000 -1.900000
v -0.107886 0.571460 -1.900000
v -0.101627 0.592095 -1.900000
v -0.091462 0.611113 -1.900000
v -0.077782 0.627782 -1.900000
v -0.061113 0.641462 -1.900000
v -0.042095 0.651627 -1.900000
v -0.021460 0.657886 -1.900000
v 0.017539 0.638176 -1.900000
v -0.000000 0.639903 -1.900000
v 0.034404 0.633060 -1.900000
v 0.049948 0.624752 -1.900000
v 0.063571 0.613571 -1.900000
v 0.074752 0.599948 -1.900000
v 0.083060 0.584404 -1.900000
v 0.088176 0.567539 -1.900000
v 0.089903 0.550000 -1.900000
v 0.088176 0.532461 -1.900000
v 0.083060 0.515595 -1.900000
v 0.074752 0.500052 -1.900000
v 0.063571 0.486429 -1.900000
v 0.049948 0.475248 -1.900000
v 0.034404 0.466940 -1.900000
v 0.017539 0.461824 -1.900000
v -0.000000 0.460097 -1.900000
v -0.017539 0.461824 -1.900000
v -0.034405 0.466940 -1.900000
v -0.049948 0.475248 -1.900000
v -0.063571 0.486429 -1.900000
v -0.074752 0.500052 -1.900000
v -0.083060 0.515595 -1.900000
v -0.088176 0.532461 -1.900000
v -0.089903 0.550000 -1.900000
v -0.088176 0.567539 -1.900000
v -0.083060 0.584404 -1.900000
v -0.074752 0.599948 -1.900000
v -0.063571 0.613571 -1.900000
v -0.049948 0.624752 -1.900000
v -0.034405 0.633060 -1.900000
v -0.017539 0.638176 -1.900000
vn -0.2903 -0.9569 -0.0000
vn -0.4714 -0.8819 -0.0000
vn -0.6344 -0.7730 -0.0000
vn -0.7730 -0.6344 -0.0000
vn -0.8819 -0.4714 -0.0000
vn -0.9569 -0.2903 -0.0000
vn -0.9952 -0.0980 -0.0000
vn -0.9952 0.0980 -0.0000
vn -0.9569 0.2903 -0.0000
vn -0.8819 0.4714 -0.0000
vn -0.7730 0.6344 -0.0000
vn -0.6344 0.7730 -0.0000
vn -0.4714 0.8819 -0.0000
vn -0.2903 0.9569 -0.0000
vn -0.0980 0.9952 -0.0000
vn 0.0980 0.9952 -0.0000
vn 0.2903 0.9569 -0.0000
vn 0.4714 0.8819 -0.0000
vn 0.6344 0.7730 -0.0000
vn 0.7730 0.6344 -0.0000
vn 0.8819 0.4714 -0.0000
vn 0.9569 0.2903 -0.0000
vn 0.9952 0.0980 -0.0000
vn 0.9952 -0.0980 -0.0000
vn 0.9569 -0.2903 -0.0000
vn 0.8819 -0.4714 -0.0000
vn 0.7730 -0.6344 -0.0000
vn 0.6344 -0.7730 -0.0000
vn 0.4714 -0.8819 -0.0000
vn 0.2903 -0.9569 -0.0000
vn -0.0000 -0.0000 1.0000
vn 0.0980 -0.9952 -0.0000
vn -0.0000 -0.0000 -1.0000
vn -0.0980 -0.9952 -0.0000
vt 0.296822 0.485388
vt 0.341844 0.471731
vt 0.937500 0.500000
vt 0.968750 0.500000
vt 0.383337 0.449553
vt 0.906250 0.500000
vt 0.419706 0.419706
vt 0.875000 0.500000
vt 0.449553 0.383337
vt 0.843750 0.500000
vt 0.471731 0.341844
vt 0.812500 0.500000
vt 0.485388 0.296822
vt 0.781250 0.500000
vt 0.490000 0.250000
vt 0.750000 0.500000
vt 0.485388 0.203178
vt 0.718750 0.500000
vt 0.471731 0.158156
vt 0.687500 0.500000
vt 0.449553 0.116663
vt 0.656250 0.500000
vt 0.419706 0.080294
vt 0.625000 0.500000
vt 0.383337 0.050447
vt 0.593750 0.500000
vt 0.341844 0.028269
vt 0.562500 0.500000
vt 0.296822 0.014612
vt 0.531250 0.500000
vt 0.250000 0.010000
vt 0.500000 0.500000
vt 0.203178 0.014612
vt 0.468750 0.500000
vt 0.158156 0.028269
vt 0.437500 0.500000
vt 0.116663 0.050447
vt 0.406250 0.500000
vt 0.080294 0.080294
vt 0.375000 0.500000
vt 0.050447 0.116663
vt 0.343750 0.500000
vt 0.028269 0.158156
vt 0.312500 0.500000
vt 0.014612 0.203178
vt 0.281250 0.500000
vt 0.010000 0.250000
vt 0.250000 0.500000
vt 0.014612 0.296822
vt 0.218750 0.500000
vt 0.028269 0.341844
vt 0.187500 0.500000
vt 0.050447 0.383337
vt 0.156250 0.500000
vt 0.080294 0.419706
vt 0.125000 0.500000
vt 0.116663 0.449553
vt 0.093750 0.500000
vt 0.158156 0.471731
vt 0.062500 0.500000
vt 0.203178 0.485388
vt 0.031250 0.500000
vt 0.288267 0.442383
vt 0.250000 0.446152
vt 0.211732 0.442383
vt 0.174936 0.431221
vt 0.141023 0.413095
vt 0.111299 0.388701
vt 0.086905 0.358976
vt 0.068779 0.325064
vt 0.057617 0.288267
vt 0.053847 0.250000
vt 0.057617 0.211732
vt 0.068779 0.174936
vt 0.086905 0.141023
vt 0.111299 0.111299
vt 0.141023 0.086905
vt 0.174936 0.068779
vt 0.211733 0.057617
vt 0.250000 0.053847
vt 0.288267 0.057617
vt 0.325064 0.068779
vt 0.358976 0.086905
vt 0.388701 0.111299
vt 0.413095 0.141023
vt 0.431221 0.174936
vt 0.442383 0.211733
vt 0.446152 0.250000
vt 0.442383 0.288267
vt 0.431221 0.325064
vt 0.413095 0.358976
vt 0.388701 0.388701
vt 0.358977 0.413095
vt 0.325064 0.431221
vt 0.250000 0.490000
vt 0.000000 0.500000
vt 0.750000 0.490000
vt 0.796822 0.485388
vt 0.841844 0.471731
vt 0.883337 0.449553
vt 0.919706 0.419706
vt 0.949553 0.383337
vt 0.971731 0.341844
vt 0.985388 0.296822
vt 0.990000 0.250000
vt 0.985388 0.203178
vt 0.971731 0.158156
vt 0.949553 0.116663
vt 0.919706 0.080294
vt 0.883337 0.050447
vt 0.841844 0.028269
vt 0.796822 0.014612
vt 0.750000 0.010000
vt 0.703178 0.014612
vt 0.658156 0.028269
vt 0.616663 0.050447
vt 0.580294 0.080294
vt 0.550447 0.116663
vt 0.528269 0.158156
vt 0.514612 0.203178
vt 0.510000 0.250000
vt 0.514612 0.296822
vt 0.528269 0.341844
vt 0.550447 0.383337
vt 0.580294 0.419706
vt 0.616663 0.449553
vt 0.658156 0.471731
vt 0.703178 0.485388
vt 1.000000 0.500000
s 0
f 65/1/1 67/2/1 5/3/1 3/4/1
f 67/2/2 68/5/2 7/6/2 5/3/2
f 68/5/3 69/7/3 9/8/3 7/6/3
f 69/7/4 70/9/4 11/10/4 9/8/4
f 70/9/5 71/11/5 13/12/5 11/10/5
f 71/11/6 72/13/6 15/14/6 13/12/6
f 72/13/7 73/15/7 17/16/7 15/14/7
f 73/15/8 74/17/8 19/18/8 17/16/8
f 74/17/9 75/19/9 21/20/9 19/18/9
f 75/19/10 76/21/10 23/22/10 21/20/10
f 76/21/11 77/23/11 25/24/11 23/22/11
f 77/23/12 78/25/12 27/26/12 25/24/12
f 78/25/13 79/27/13 29/28/13 27/26/13
f 79/27/14 80/29/14 31/30/14 29/28/14
f 80/29/15 81/31/15 33/32/15 31/30/15
f 81/31/16 82/33/16 35/34/16 33/32/16
f 82/33/17 83/35/17 37/36/17 35/34/17
f 83/35/18 84/37/18 39/38/18 37/36/18
f 84/37/19 85/39/19 41/40/19 39/38/19
f 85/39/20 86/41/20 43/42/20 41/40/20
f 86/41/21 87/43/21 45/44/21 43/42/21
f 87/43/22 88/45/22 47/46/22 45/44/22
f 88/45/23 89/47/23 49/48/23 47/46/23
f 89/47/24 90/49/24 51/50/24 49/48/24
f 90/49/25 91/51/25 53/52/25 51/50/25
f 91/51/26 92/53/26 55/54/26 53/52/26
f 92/53/27 93/55/27 57/56/27 55/54/27
f 93/55/28 94/57/28 59/58/28 57/56/28
f 94/57/29 95/59/29 61/60/29 59/58/29
f 95/59/30 96/61/30 63/62/30 61/60/30
f 4/63/31 2/64/31 64/65/31 62/66/31 60/67/31 58/68/31 56/69/31 54/70/31 52/71/31 50/72/31 48/73/31 46/74/31 44/75/31 42/76/31 40/77/31 38/78/31 36/79/31 34/80/31 32/81/31 30/82/31 28/83/31 26/84/31 24/85/31 22/86/31 20/87/31 18/88/31 16/89/31 14/90/31 12/91/31 10/92/31 8/93/31 6/94/31
f 96/61/32 66/95/32 1/96/32 63/62/32
f 1/97/33 3/98/33 5/99/33 7/100/33 9/101/33 11/102/33 13/103/33 15/104/33 17/105/33 19/106/33 21/107/33 23/108/33 25/109/33 27/110/33 29/111/33 31/112/33 33/113/33 35/114/33 37/115/33 39/116/33 41/117/33 43/118/33 45/119/33 47/120/33 49/121/33 51/122/33 53/123/33 55/124/33 57/125/33 59/126/33 61/127/33 63/128/33
f 98/64/31 97/63/31 65/1/31 66/95/31
f 97/63/31 99/94/31 67/2/31 65/1/31
f 99/94/31 100/93/31 68/5/31 67/2/31
f 100/93/31 101/92/31 69/7/31 68/5/31
f 101/92/31 102/91/31 70/9/31 69/7/31
f 102/91/31 103/90/31 71/11/31 70/9/31
f 103/90/31 104/89/31 72/13/31 71/11/31
f 104/89/31 105/88/31 73/15/31 72/13/31
f 105/88/31 106/87/31 74/17/31 73/15/31
f 106/87/31 107/86/31 75/19/31 74/17/31
f 107/86/31 108/85/31 76/21/31 75/19/31
f 108/85/31 109/84/31 77/23/31 76/21/31
f 109/84/31 110/83/31 78/25/31 77/23/31
f 110/83/31 111/82/31 79/27/31 78/25/31
f 111/82/31 112/81/31 80/29/31 79/27/31
f 112/81/31 113/80/31 81/31/31 80/29/31
f 113/80/31 114/79/31 82/33/31 81/31/31
f 114/79/31 115/78/31 83/35/31 82/33/31
f 115/78/31 116/77/31 84/37/31 83/35/31
f 116/77/31 117/76/31 85/39/31 84/37/31
f 117/76/31 118/75/31 86/41/31 85/39/31
f 118/75/31 119/74/31 87/43/31 86/41/31
f 119/74/31 120/73/31 88/45/31 87/43/31
f 120/73/31 121/72/31 89/47/31 88/45/31
f 121/72/31 122/71/31 90/49/31 89/47/31
f 122/71/31 123/70/31 91/51/31 90/49/31
f 123/70/31 124/69/31 92/53/31 91/51/31
f 124/69/31 125/68/31 93/55/31 92/53/31
f 125/68/31 126/67/31 94/57/31 93/55/31
f 126/67/31 127/66/31 95/59/31 94/57/31
f 127/66/31 128/65/31 96/61/31 95/59/31
f 128/65/31 98/64/31 66/95/31 96/61/31
f 2/64/16 4/63/16 97/63/16 98/64/16
f 4/63/17 6/94/17 99/94/17 97/63/17
f 6/94/18 8/93/18 100/93/18 99/94/18
f 8/93/19 10/92/19 101/92/19 100/93/19
f 10/92/20 12/91/20 102/91/20 101/92/20
f 12/91/21 14/90/21 103/90/21 102/91/21
f 14/90/22 16/89/22 104/89/22 103/90/22
f 16/89/23 18/88/23 105/88/23 104/89/23
f 18/88/24 20/87/24 106/87/24 105/88/24
f 20/87/25 22/86/25 107/86/25 106/87/25
f 22/86/26 24/85/26 108/85/26 107/86/26
f 24/85/27 26/84/27 109/84/27 108/85/27
f 26/84/28 28/83/28 110/83/28 109/84/28
f 28/83/29 30/82/29 111/82/29 110/83/29
f 30/82/30 32/81/30 112/81/30 111/82/30
f 32/81/32 34/80/32 113/80/32 112/81/32
f 34/80/34 36/79/34 114/79/34 113/80/34
f 36/79/1 38/78/1 115/78/1 114/79/1
f 38/78/2 40/77/2 116/77/2 115/78/2
f 40/77/3 42/76/3 117/76/3 116/77/3
f 42/76/4 44/75/4 118/75/4 117/76/4
f 44/75/5 46/74/5 119/74/5 118/75/5
f 46/74/6 48/73/6 120/73/6 119/74/6
f 48/73/7 50/72/7 121/72/7 120/73/7
f 50/72/8 52/71/8 122/71/8 121/72/8
f 52/71/9 54/70/9 123/70/9 122/71/9
f 54/70/10 56/69/10 124/69/10 123/70/10
f 56/69/11 58/68/11 125/68/11 124/69/11
f 58/68/12 60/67/12 126/67/12 125/68/12
f 60/67/13 62/66/13 127/66/13 126/67/13
f 62/66/14 64/65/14 128/65/14 127/66/14
f 64/65/15 2/64/15 98/64/15 128/65/15
f 66/95/34 65/1/34 3/4/34 1/129/34
