# Blender 4.0.1
# www.blender.org
mtllib tracks.mtl
o Tracks
v 0.750000 -0.185590 1.300000
v 0.750000 -0.185590 -1.300000
v 1.150000 -0.185590 1.300000
v 1.150000 -0.185590 -1.300000
v 0.750000 -0.500000 1.044853
v 0.750000 -0.231241 1.300000
v 0.750000 -0.473728 1.186666
v 0.750000 -0.373053 1.287341
v 0.750000 -0.231241 -1.300000
v 0.750000 -0.500000 -1.044853
v 0.750000 -0.373053 -1.287341
v 0.750000 -0.473728 -1.186666
v 1.150000 -0.231241 1.300000
v 1.150000 -0.500000 1.044853
v 1.150000 -0.373053 1.287341
v 1.150000 -0.473728 1.186666
v 1.150000 -0.500000 -1.044853
v 1.150000 -0.231241 -1.300000
v 1.150000 -0.473728 -1.186666
v 1.150000 -0.373053 -1.287341
v -0.750000 -0.185590 1.300000
v -0.750000 -0.185590 -1.300000
v -1.150000 -0.185590 1.300000
v -1.150000 -0.185590 -1.300000
v -0.750000 -0.500000 1.044853
v -0.750000 -0.231241 1.300000
v -0.750000 -0.473728 1.186666
v -0.750000 -0.373053 1.287341
v -0.750000 -0.231241 -1.300000
v -0.750000 -0.500000 -1.044853
v -0.750000 -0.373053 -1.287341
v -0.750000 -0.473728 -1.186666
v -1.150000 -0.231241 1.300000
v -1.150000 -0.500000 1.044853
v -1.150000 -0.373053 1.287341
v -1.150000 -0.473728 1.186666
v -1.150000 -0.500000 -1.044853
v -1.150000 -0.231241 -1.300000
v -1.150000 -0.473728 -1.186666
v -1.150000 -0.373053 -1.287341
vn -0.0000 -0.0445 0.9990
vn -0.0000 -0.0000 1.0000
vn 1.0000 -0.0000 -0.0000
vn -0.0000 -0.0445 -0.9990
vn -0.0000 -0.0000 -1.0000
vn -1.0000 -0.0000 -0.0000
vn -0.0000 1.0000 -0.0000
vn -0.0000 -0.9958 -0.0915
vn -0.0000 -0.9833 -0.1822
vn -0.0000 -0.7071 -0.7071
vn -0.0000 -0.0889 -0.9960
vn -0.0000 -0.9958 0.0915
vn -0.0000 -0.9833 0.1822
vn -0.0000 -0.7071 0.7071
vn -0.0000 -0.0889 0.9960
vt 0.587058 0.750000
vt 0.625000 0.750000
vt 0.625000 1.000000
vt 0.587058 1.000000
vt 0.375000 0.524533
vt 0.385521 0.510898
vt 0.469195 0.501217
vt 0.587058 0.500000
vt 0.625000 0.500000
vt 0.469195 0.748783
vt 0.385521 0.739102
vt 0.375000 0.725467
vt 0.587058 0.250000
vt 0.625000 0.250000
vt 0.375000 0.024533
vt 0.385521 0.010898
vt 0.469195 0.001217
vt 0.587058 0.000000
vt 0.625000 0.000000
vt 0.469195 0.248783
vt 0.385521 0.239102
vt 0.375000 0.225467
vt 0.875000 0.500000
vt 0.875000 0.750000
vt 0.125000 0.524533
vt 0.125000 0.510898
vt 0.375000 0.510898
vt 0.125000 0.500000
vt 0.375000 0.500000
vt 0.375000 0.250000
vt 0.125000 0.725467
vt 0.375000 0.725467
vt 0.375000 0.739102
vt 0.125000 0.739102
vt 0.375000 0.750000
vt 0.125000 0.750000
vt 0.375000 1.000000
s 1
f 13/1/1 3/2/2 1/3/2 6/4/1
f 17/5/3 19/6/3 20/7/3 18/8/3 4/9/3 3/2/3 13/1/3 15/10/3 16/11/3 14/12/3
f 9/13/4 2/14/5 4/9/5 18/8/4
f 5/15/6 7/16/6 8/17/6 6/18/6 1/19/6 2/14/6 9/13/6 11/20/6 12/21/6 10/22/6
f 4/9/7 2/23/7 1/24/7 3/2/7
f 17/5/8 10/25/8 12/26/9 19/27/9
f 19/27/10 12/26/10 11/28/10 20/29/10
f 20/29/11 11/30/11 9/13/4 18/8/4
f 5/31/12 14/32/12 16/33/13 7/34/13
f 7/34/14 16/33/14 15/35/14 8/36/14
f 8/37/15 15/35/15 13/1/1 6/4/1
f 10/25/8 17/5/8 14/32/12 5/31/12
f 33/1/1 26/4/1 21/3/2 23/2/2
f 37/5/6 34/12/6 36/11/6 35/10/6 33/1/6 23/2/6 24/9/6 38/8/6 40/7/6 39/6/6
f 29/13/4 38/8/4 24/9/5 22/14/5
f 25/15/3 30/22/3 32/21/3 31/20/3 29/13/3 22/14/3 21/19/3 26/18/3 28/17/3 27/16/3
f 24/9/7 23/2/7 21/24/7 22/23/7
f 37/5/8 39/27/9 32/26/9 30/25/8
f 39/27/10 40/29/10 31/28/10 32/26/10
f 40/29/11 38/8/4 29/13/4 31/30/11
f 25/31/12 27/34/13 36/33/13 34/32/12
f 27/34/14 28/36/14 35/35/14 36/33/14
f 28/37/15 26/4/1 33/1/1 35/35/15
f 30/25/8 25/31/12 34/32/12 37/5/8
